<?xml version="1.0" encoding="UTF-8"?>
<svg version="1.1" xmlns="http://www.w3.org/2000/svg" width="256" height="256">
<path d="M0 0 C84.48 0 168.96 0 256 0 C256 84.48 256 168.96 256 256 C171.52 256 87.04 256 0 256 C0 171.52 0 87.04 0 0 Z " fill="#209CEE" transform="translate(0,0)"/>
<path d="M0 0 C1.20127433 1.02320933 2.36774779 2.08839932 3.5 3.1875 C4.19609375 3.85652344 4.8921875 4.52554688 5.609375 5.21484375 C14.33990164 14.27993437 16.12041838 22.57248785 15.96655273 34.8581543 C15.52418241 46.91981689 11.23997939 53.88679167 2.5 62.1875 C-2.37628866 66.1875 -2.37628866 66.1875 -5.5 66.1875 C-5.5 66.8475 -5.5 67.5075 -5.5 68.1875 C-4.4171875 68.55101563 -4.4171875 68.55101563 -3.3125 68.921875 C6.36146697 73.27516013 14.58730879 83.46557292 18.5 93.1875 C22.14634249 103.81286359 22.35103753 117.49141555 17.75 127.84375 C10.02554081 142.32711098 -0.6674221 150.32177821 -16.23046875 155.40625 C-35.12930106 160.98230168 -57.49075727 161.90853143 -76.5 156.1875 C-77.29809082 155.95643555 -78.09618164 155.72537109 -78.91845703 155.48730469 C-93.89810524 151.09533702 -110.63385237 145.59111461 -120.4375 132.625 C-121.62939178 129.89066004 -121.89865828 128.13757126 -121.5 125.1875 C-119.5 123.1875 -119.5 123.1875 -116 122.9375 C-111.04997653 123.04669169 -106.31094072 124.08334967 -101.5 125.1875 C-101.53480469 124.32511719 -101.56960937 123.46273437 -101.60546875 122.57421875 C-102.28411097 91.97068607 -93.237909 50.76432138 -73.15625 26.89453125 C-70.02517352 23.66745478 -67.32278868 21.47748911 -62.75 20.75 C-62.0075 20.894375 -61.265 21.03875 -60.5 21.1875 C-54.05196969 30.85954546 -59.49631709 47.81233493 -61.59338379 58.35253906 C-62.93904813 65.04293788 -64.36751859 71.71065847 -65.94140625 78.3515625 C-69.12806597 91.87594659 -70.55836745 105.08201092 -71.31054688 118.95410156 C-71.62794475 124.37113444 -72.06483324 129.77884111 -72.5 135.1875 C-65.55899494 136.61628818 -58.82831287 137.40007748 -51.75 137.4375 C-51.05398682 137.44652344 -50.35797363 137.45554688 -49.64086914 137.46484375 C-40.2226512 137.41133748 -31.46657202 134.76694378 -24.4453125 128.29296875 C-18.03592981 121.3383896 -17.15476222 115.14336475 -17.1875 105.9375 C-17.17138672 105.04675781 -17.15527344 104.15601563 -17.13867188 103.23828125 C-17.13205308 94.11758207 -19.10892915 86.55529682 -24.5 79.1875 C-24.83 78.1975 -25.16 77.2075 -25.5 76.1875 C-26.985 76.6825 -26.985 76.6825 -28.5 77.1875 C-47.79587122 78.30361268 -47.79587122 78.30361268 -54.5 72.4375 C-56.00172818 69.05861159 -56.07680459 66.84059571 -55.5 63.1875 C-53.28072863 60.53387583 -50.59509567 58.73504783 -47.5 57.1875 C-45.7595583 57.10300372 -44.01590278 57.08026976 -42.2734375 57.08984375 C-40.7265625 57.09467773 -40.7265625 57.09467773 -39.1484375 57.09960938 C-38.06820312 57.10798828 -36.98796875 57.11636719 -35.875 57.125 C-34.24304688 57.13176758 -34.24304688 57.13176758 -32.578125 57.13867188 C-29.88536211 57.15048224 -27.19270812 57.16695222 -24.5 57.1875 C-24.20351562 56.43210937 -23.90703125 55.67671875 -23.6015625 54.8984375 C-22.76474331 52.83903141 -21.83934195 50.81536405 -20.875 48.8125 C-17.96963285 40.90510899 -18.08984364 31.2583934 -21.5 23.5625 C-24.24039488 18.87580194 -27.64050021 16.448655 -32.5 14.1875 C-33.36625 13.775 -34.2325 13.3625 -35.125 12.9375 C-55.22567679 6.58991786 -75.7126496 12.84830162 -93.73803711 21.83349609 C-99.3372188 24.54865041 -103.26890881 25.74137477 -109.5 25.1875 C-109.61645928 19.83037328 -108.09404014 17.27272265 -104.5625 13.25 C-79.59110336 -12.62303263 -30.9628891 -21.71030701 0 0 Z " fill="#FCFDFE" transform="translate(178.5,53.8125)"/>
<path d="M0 0 C0.33 0 0.66 0 1 0 C1 6.6 1 13.2 1 20 C-6.26 20 -13.52 20 -21 20 C-21 19.67 -21 19.34 -21 19 C-20.41992188 18.82984375 -19.83984375 18.6596875 -19.2421875 18.484375 C-10.37553092 15.79037102 -10.37553092 15.79037102 -4.30078125 9.07421875 C-2.7905001 6.07829973 -1.35980158 3.06678653 0 0 Z " fill="#F5F8FB" transform="translate(255,236)"/>
<path d="M0 0 C7.26 0 14.52 0 22 0 C22 6.27 22 12.54 22 19 C20.88980122 17.33470183 19.80123522 15.65199871 18.80859375 13.9140625 C15.22907908 7.93800667 11.5259708 4.54229123 5 2 C3.34179476 1.62684552 1.6759867 1.28276753 0 1 C0 0.67 0 0.34 0 0 Z " fill="#F8FAFC" transform="translate(234,0)"/>
<path d="M0 0 C3 4 3 4 4.25390625 6.18359375 C7.99650771 12.62980582 12.12620813 15.29667079 19 18 C19 18.33 19 18.66 19 19 C12.73 19 6.46 19 0 19 C0 12.73 0 6.46 0 0 Z " fill="#FAFBFC" transform="translate(0,237)"/>
<path d="M0 0 C6.27 0 12.54 0 19 0 C17.32949879 1.11366747 15.64472804 2.20890523 13.9140625 3.2265625 C8.18881608 6.72423864 5.12251461 10.11863713 2 16 C1.34 16.99 0.68 17.98 0 19 C0 12.73 0 6.46 0 0 Z " fill="#FCFCFD" transform="translate(0,0)"/>
</svg>
