<svg version="1.1" id="Layer_1" xmlns="http://www.w3.org/2000/svg" xmlns:xlink="http://www.w3.org/1999/xlink" x="0px" y="0px"
	 width="100%" viewBox="0 0 291 220" enable-background="new 0 0 291 220" xml:space="preserve">
<path fill="#181A1B" opacity="1.000000" stroke="none" 
	d="
M165.000000,221.000000 
	C110.000008,221.000000 55.500011,221.000000 1.000015,221.000000 
	C1.000010,147.666687 1.000010,74.333366 1.000005,1.000034 
	C97.999969,1.000023 194.999939,1.000023 291.999939,1.000011 
	C291.999939,74.333298 291.999939,147.666595 291.999969,220.999939 
	C249.833328,221.000000 207.666672,221.000000 165.000000,221.000000 
M144.792130,152.398865 
	C153.920609,112.739006 163.049072,73.079147 172.219376,33.237526 
	C162.779160,33.237526 154.005829,33.237526 145.048813,33.237526 
	C135.130096,76.488899 125.255470,119.548103 115.362061,162.689163 
	C124.761345,162.689163 133.515686,162.689163 142.331924,162.689163 
	C143.139877,159.341537 143.879456,156.277267 144.792130,152.398865 
M225.377487,108.474152 
	C218.458725,112.424591 211.516129,116.334381 204.643738,120.363937 
	C203.443359,121.067780 201.664993,122.249519 201.634979,123.254738 
	C201.390091,131.460373 201.497101,139.676498 201.497101,148.824997 
	C215.641602,140.203094 228.843521,132.228867 241.916519,124.048645 
	C242.966568,123.391586 243.596634,121.326050 243.626450,119.898422 
	C243.789627,112.082703 243.553375,104.257385 243.781448,96.444908 
	C243.868042,93.478340 242.665634,92.034401 240.272736,90.620071 
	C228.259430,83.519615 216.354797,76.235489 204.393616,69.046417 
	C203.645523,68.596779 202.741241,68.406998 201.455917,67.926842 
	C201.455917,76.273666 201.313065,84.068985 201.590210,91.849342 
	C201.638962,93.217705 203.168564,94.982826 204.488281,95.780960 
	C211.298172,99.899406 218.262405,103.762657 225.377487,108.474152 
M82.680191,146.968704 
	C83.534950,147.291458 84.389702,147.614212 85.703323,148.110229 
	C85.703323,140.789307 85.436844,133.977676 85.805786,127.200645 
	C86.018524,123.292816 84.694382,121.251091 81.259689,119.501579 
	C74.577904,116.098129 68.164085,112.168571 60.990631,108.087952 
	C68.814598,103.699036 75.784592,99.851669 82.673645,95.864441 
	C83.850502,95.183304 85.511086,93.928024 85.540627,92.897629 
	C85.776070,84.684952 85.671959,76.462547 85.671959,67.303673 
	C71.540977,75.836639 58.296120,83.759933 45.182877,91.895378 
	C44.140236,92.542229 43.558067,94.648636 43.528900,96.092255 
	C43.370708,103.921944 43.256481,111.765137 43.598118,119.583092 
	C43.679367,121.442505 45.116280,123.929604 46.690556,124.927223 
	C58.356243,132.319778 70.214218,139.408905 82.680191,146.968704 
z"/>
<path fill="#E5E3E0" opacity="1.000000" stroke="none" 
	d="
M144.705566,152.805939 
	C143.879456,156.277267 143.139877,159.341537 142.331924,162.689163 
	C133.515686,162.689163 124.761345,162.689163 115.362061,162.689163 
	C125.255470,119.548103 135.130096,76.488899 145.048813,33.237526 
	C154.005829,33.237526 162.779160,33.237526 172.219376,33.237526 
	C163.049072,73.079147 153.920609,112.739006 144.705566,152.805939 
z"/>
<path fill="#E2E0DD" opacity="1.000000" stroke="none" 
	d="
M225.275146,108.094543 
	C218.262405,103.762657 211.298172,99.899406 204.488281,95.780960 
	C203.168564,94.982826 201.638962,93.217705 201.590210,91.849342 
	C201.313065,84.068985 201.455917,76.273666 201.455917,67.926842 
	C202.741241,68.406998 203.645523,68.596779 204.393616,69.046417 
	C216.354797,76.235489 228.259430,83.519615 240.272736,90.620071 
	C242.665634,92.034401 243.868042,93.478340 243.781448,96.444908 
	C243.553375,104.257385 243.789627,112.082703 243.626450,119.898422 
	C243.596634,121.326050 242.966568,123.391586 241.916519,124.048645 
	C228.843521,132.228867 215.641602,140.203094 201.497101,148.824997 
	C201.497101,139.676498 201.390091,131.460373 201.634979,123.254738 
	C201.664993,122.249519 203.443359,121.067780 204.643738,120.363937 
	C211.516129,116.334381 218.458725,112.424591 225.275146,108.094543 
z"/>
<path fill="#E2E0DE" opacity="1.000000" stroke="none" 
	d="
M82.345985,146.781036 
	C70.214218,139.408905 58.356243,132.319778 46.690556,124.927223 
	C45.116280,123.929604 43.679367,121.442505 43.598118,119.583092 
	C43.256481,111.765137 43.370708,103.921944 43.528900,96.092255 
	C43.558067,94.648636 44.140236,92.542229 45.182877,91.895378 
	C58.296120,83.759933 71.540977,75.836639 85.671959,67.303673 
	C85.671959,76.462547 85.776070,84.684952 85.540627,92.897629 
	C85.511086,93.928024 83.850502,95.183304 82.673645,95.864441 
	C75.784592,99.851669 68.814598,103.699036 60.990631,108.087952 
	C68.164085,112.168571 74.577904,116.098129 81.259689,119.501579 
	C84.694382,121.251091 86.018524,123.292816 85.805786,127.200645 
	C85.436844,133.977676 85.703323,140.789307 85.703323,148.110229 
	C84.389702,147.614212 83.534950,147.291458 82.345985,146.781036 
z"/>
</svg>